<svg width="48" height="48" viewBox="0 0 48 48" fill="none" xmlns="http://www.w3.org/2000/svg">
<path d="M26.3721 39.7927C25.7634 40.158 24.9011 40.0536 24.4953 39.3751C24.1402 38.7488 24.2924 37.8616 24.9518 37.444C28.959 34.8344 33.6764 30.6591 34.2344 25.7008C34.5894 22.7259 33.3213 19.6988 30.3793 16.5673C23.1764 8.89504 17.7996 13.7489 11.9156 19.1247C11.7127 19.3334 11.4591 19.5944 11.2055 19.8031V19.751L19.5243 29.7196C19.9808 30.2937 19.9301 31.1288 19.3721 31.6507C18.8141 32.1204 17.9518 32.1204 17.4953 31.5463L8.31418 20.586C8.11128 20.3251 7.95911 19.9597 8.00983 19.5944C8.06056 19.229 8.26345 18.8637 8.51708 18.6549L8.66925 18.5505C9.17649 18.133 9.63301 17.6633 10.191 17.1936C15.9736 11.9744 23.3286 5.2938 32.3575 14.7927C35.8068 18.394 37.3793 22.2562 36.9227 26.1706C36.5169 29.824 34.3358 33.4252 30.4807 36.8177C29.2634 37.705 27.8938 38.6966 26.3721 39.7927Z" fill="#DEDEDE"/>
<path d="M24 48C10.7586 48 0 37.2414 0 24C0 10.7586 10.7586 0 24 0C37.2414 0 48 10.7586 48 24C48 37.2414 37.2414 48 24 48ZM24 2.7931C12.3103 2.7931 2.7931 12.3103 2.7931 24C2.7931 35.6897 12.3103 45.2069 24 45.2069C35.6897 45.2069 45.2069 35.6897 45.2069 24C45.1552 12.3103 35.6897 2.7931 24 2.7931Z" fill="#DEDEDE"/>
</svg>
